<?xml version="1.0" encoding="utf-8"?>
<!-- Generator: Adobe Illustrator 22.0.1, SVG Export Plug-In . SVG Version: 6.00 Build 0)  -->
<svg version="1.1" id="Calque_1" xmlns="http://www.w3.org/2000/svg" xmlns:xlink="http://www.w3.org/1999/xlink" x="0px" y="0px"
	 viewBox="0 0 1190.5 317" style="enable-background:new 0 0 1190.5 317;" xml:space="preserve">
<metadata><?xpacket begin="﻿" id="W5M0MpCehiHzreSzNTczkc9d"?>
<x:xmpmeta xmlns:x="adobe:ns:meta/" x:xmptk="Adobe XMP Core 5.6-c143 79.161210, 2017/08/11-10:28:36        ">
   <rdf:RDF xmlns:rdf="http://www.w3.org/1999/02/22-rdf-syntax-ns#">
      <rdf:Description rdf:about=""/>
   </rdf:RDF>
</x:xmpmeta>
                                                                                                    
                                                                                                    
                                                                                                    
                                                                                                    
                                                                                                    
                                                                                                    
                                                                                                    
                                                                                                    
                                                                                                    
                                                                                                    
                                                                                                    
                                                                                                    
                                                                                                    
                                                                                                    
                                                                                                    
                                                                                                    
                                                                                                    
                                                                                                    
                                                                                                    
                                                                                                    
                           
<?xpacket end="w"?></metadata>
<style type="text/css">
	.st0{fill:#FFFFFF;}
</style>
<g>
	<path class="st0" d="M59.2,90.6C59.2,79.8,68,71,78.8,71h72c50.5,0,91.6,41.1,91.6,91.6c0,50.5-41.1,91.6-91.6,91.6
		c-50.5,0-91.6-41.1-91.6-91.6L59.2,90.6z M150.8,261.4c54.5,0,98.8-44.3,98.8-98.8c0-54.5-44.3-98.8-98.8-98.8h-72
		C64,63.8,52,75.8,52,90.6v72C52,217.1,96.3,261.4,150.8,261.4"/>
	<path class="st0" d="M188.3,178.3l-4.5,26.5c-0.8,4.9,2.4,9.5,7.3,10.3l2.9,0.5c4.9,0.8,9.5-2.4,10.3-7.3l4.5-26.5
		c0.8-4.9-2.5-9.5-7.3-10.3l-2.9-0.5C193.7,170.2,189.1,173.4,188.3,178.3"/>
	<path class="st0" d="M224.8,133.2l-14,81.6c12.2-14,19.6-32.2,19.6-52.3C230.4,152.2,228.4,142.3,224.8,133.2"/>
	<path class="st0" d="M197.8,122.8c-0.4,2.4,1.2,4.8,3.7,5.2l11.8,2c2.4,0.4,4.7-1.2,5.2-3.7c0.4-2.4-1.2-4.8-3.7-5.2l-11.8-2
		C200.5,118.7,198.2,120.4,197.8,122.8"/>
	<path class="st0" d="M89,136.2c0-4.9,4-9,9-9h17.9c4.9,0,9,4,9,9v101.7c1.5,0.5,3,1,4.5,1.4v-127c0-5,4-9,9-9h17.9c5,0,9,4,9,9
		v128.6c1.7-0.3,3.3-0.7,5-1.1l20.9-122.1c0.8-4.9,5.5-8.2,10.4-7.3l11.1,1.9C197.9,94.4,175.7,83,150.8,83h-72
		c-4.2,0-7.6,3.4-7.6,7.6v72c0,19,6.7,36.5,17.9,50.2V136.2z"/>
	<path class="st0" d="M112.9,144.5c2.5,0,4.5-2,4.5-4.5c0-2.5-2-4.5-4.5-4.5H101c-2.5,0-4.5,2-4.5,4.5c0,2.5,2,4.5,4.5,4.5H112.9z"
		/>
	<path class="st0" d="M117.4,205.6c0-4.9-4-9-9-9h-3c-4.9,0-9,4-9,9v15.1c6.1,5.7,13,10.4,20.6,13.9c0.2-0.7,0.3-1.4,0.3-2.2V205.6z
		"/>
	<path class="st0" d="M136.8,199.3c0,4.9,4,9,9,9h3c5,0,9-4,9-9v-26.9c0-5-4-9-9-9h-3c-4.9,0-9,4-9,9V199.3z"/>
	<path class="st0" d="M153.3,120.6c2.5,0,4.5-2,4.5-4.5c0-2.5-2-4.5-4.5-4.5h-12c-2.5,0-4.5,2-4.5,4.5c0,2.5,2,4.5,4.5,4.5H153.3z"
		/>
</g>
<g>
	<path class="st0" d="M275,187.9v-69.1h10.9V186c0,3.3,0.9,5.9,2.8,7.8c1.9,1.9,4.4,2.8,7.4,2.8v9.7C282,206.4,275,200.2,275,187.9"
		/>
	<path class="st0" d="M333.9,151.9c-4.8,0-8.9,1.6-12.2,4.7c-3.1,3-4.9,6.7-5.3,11.1h33.9c0-4.4-1.4-8-4.1-11
		C343.2,153.5,339.1,151.9,333.9,151.9 M360.3,175.6h-44.2c0,7.2,2,12.7,5.9,16.5c3.5,3.4,7.9,5,13.4,5c6.2,0,11.4-1.8,15.6-5.4
		l4.6,7.8c-1.7,1.7-4.3,3.1-7.7,4.3c-4.3,1.6-9.2,2.4-14.5,2.4c-7.7,0-14.2-2.6-19.6-7.8c-6-5.8-9-13.5-9-23.2
		c0-10.1,3.1-18.2,9.2-24.3c5.5-5.5,12-8.2,19.5-8.2c8.7,0,15.6,2.5,20.5,7.4c4.8,4.7,7.2,11,7.2,18.8
		C361.2,171.4,360.9,173.6,360.3,175.6"/>
	<path class="st0" d="M373.5,187.9v-69.1h10.9V186c0,3.3,0.9,5.9,2.8,7.8c1.9,1.9,4.4,2.8,7.4,2.8v9.7
		C380.5,206.4,373.5,200.2,373.5,187.9"/>
	<path class="st0" d="M418.4,120.8c1.9,0,3.5,0.7,4.8,2c1.3,1.3,2,2.9,2,4.7c0,1.9-0.7,3.5-2,4.8c-1.3,1.3-2.9,2-4.8,2
		c-1.8,0-3.4-0.7-4.7-2c-1.3-1.3-2-2.9-2-4.8c0-1.9,0.6-3.5,1.9-4.7C414.9,121.4,416.5,120.8,418.4,120.8 M412.4,205.2v-52.1H404
		v-9.2h19.3v61.3H412.4z"/>
	<polygon class="st0" points="462.7,206.4 459.8,206.4 433.5,143.8 445.4,143.8 461.6,186.7 478.2,143.8 489.6,143.8 	"/>
	<path class="st0" d="M531.3,154.4c-2.4-1.6-4.7-2.5-7.2-2.5c-3.9,0-7.2,1.8-10.1,5.3c-2.9,3.5-4.3,7.8-4.3,12.8v35.1h-10.9v-61.3
		h10.9v9.8c4-7.3,9.9-10.9,17.7-10.9c1.9,0,4.7,0.3,8.4,1L531.3,154.4z"/>
	<path class="st0" d="M568.7,151.9c-4.8,0-8.9,1.6-12.2,4.7c-3.1,3-4.9,6.7-5.3,11.1h33.9c0-4.4-1.4-8-4.1-11
		C578,153.5,573.9,151.9,568.7,151.9 M595.1,175.6h-44.2c0,7.2,2,12.7,5.9,16.5c3.5,3.4,7.9,5,13.4,5c6.2,0,11.4-1.8,15.6-5.4
		l4.6,7.8c-1.7,1.7-4.3,3.1-7.7,4.3c-4.3,1.6-9.2,2.4-14.5,2.4c-7.7,0-14.2-2.6-19.6-7.8c-6-5.8-9-13.5-9-23.2
		c0-10.1,3.1-18.2,9.2-24.3c5.5-5.5,12-8.2,19.5-8.2c8.7,0,15.6,2.5,20.5,7.4c4.8,4.7,7.2,11,7.2,18.8
		C596,171.4,595.7,173.6,595.1,175.6"/>
	<path class="st0" d="M603.4,201.5l3.8-10.3c6.1,4,10.9,6,14.6,6c6.7,0,10.1-2.8,10.1-8.5c0-4-3.2-7.5-9.7-10.4
		c-5-2.3-8.4-4-10.1-5.2c-1.7-1.2-3.2-2.5-4.5-4c-1.3-1.5-2.2-3.1-2.9-4.8c-0.6-1.7-0.9-3.5-0.9-5.5c0-5,1.8-9,5.5-11.8
		c3.7-2.8,8.4-4.2,14.4-4.2c4.5,0,10.1,1.4,16.9,4.2l-3.1,10.1c-4.3-3.4-8.6-5.2-13-5.2c-2.6,0-4.8,0.6-6.6,1.8
		c-1.8,1.2-2.7,2.8-2.7,4.6c0,3.9,2.2,6.9,6.7,8.9l7.8,3.5c4.8,2.2,8.2,4.7,10.4,7.4c2.2,2.8,3.3,6.3,3.3,10.5
		c0,5.5-1.9,9.8-5.8,12.9c-3.9,3.1-9.2,4.7-16,4.7C615.2,206.4,609.1,204.8,603.4,201.5"/>
	<path class="st0" d="M701.1,148.9l-5.4,7.7c-1.1-1.1-3.1-2.2-5.9-3.1c-2.8-1-5.6-1.5-8.3-1.5c-5.9,0-10.6,2.1-14.1,6.2
		c-3.5,4.1-5.2,9.8-5.2,17c0,7.2,1.8,12.6,5.3,16.4c3.5,3.8,8.5,5.6,14.8,5.6c4.9,0,9.8-1.9,14.8-5.7l4.3,9.2
		c-5.8,3.8-13.1,5.7-21.7,5.7c-8.4,0-15.3-2.8-20.7-8.4c-5.5-5.6-8.2-13.2-8.2-22.8c0-9.8,2.8-17.6,8.5-23.5
		c5.7-5.9,13.4-8.9,23.3-8.9c3.2,0,6.6,0.7,10.3,2C696.6,146.1,699.3,147.5,701.1,148.9"/>
	<path class="st0" d="M720.3,174.4c0,15.4,5.4,23.1,16.3,23.1c5.1,0,9-2.1,11.9-6.2c2.9-4.1,4.3-9.7,4.3-16.9
		c0-15.2-5.4-22.8-16.3-22.8c-5,0-8.9,2-11.9,6.1C721.8,161.8,720.3,167.3,720.3,174.4 M708.9,174.4c0-9.5,2.5-17.1,7.6-22.9
		c5.1-5.8,11.8-8.7,20.1-8.7c8.8,0,15.6,2.8,20.4,8.4c4.8,5.6,7.3,13.3,7.3,23.3c0,9.9-2.5,17.7-7.4,23.4c-5,5.7-11.7,8.6-20.3,8.6
		c-8.7,0-15.5-2.9-20.4-8.6C711.3,192,708.9,184.2,708.9,174.4"/>
	<path class="st0" d="M776.6,187.9v-69.1h10.9V186c0,3.3,0.9,5.9,2.8,7.8c1.9,1.9,4.4,2.8,7.4,2.8v9.7
		C783.6,206.4,776.6,200.2,776.6,187.9"/>
	<path class="st0" d="M843.9,175.1c-3.4-0.8-5.8-1.1-7.2-1.1c-5.5,0-10,1.4-13.4,4.2c-3.5,2.8-5.2,6.2-5.2,10
		c0,6.4,3.8,9.6,11.3,9.6c5.5,0,10.4-2.6,14.6-7.8V175.1z M844.9,198.2c-4.4,5.5-11,8.2-20,8.2c-4.8,0-9-1.7-12.5-5.2
		c-3.5-3.5-5.3-7.8-5.3-13c0-6.2,2.7-11.5,8.2-15.8c5.4-4.3,12.4-6.4,20.8-6.4c2.3,0,4.9,0.5,7.8,1.5c0-9.9-4.4-14.9-13.3-14.9
		c-6.8,0-12,1.8-15.7,5.5l-4.6-9.1c2.1-1.7,4.9-3.1,8.6-4.3c3.6-1.2,7.1-1.8,10.4-1.8c8.9,0,15.3,2,19.4,6.1c4,4,6,10.5,6,19.3v22
		c0,5.4,1.6,9,4.8,10.8v5.4c-4.4,0-7.7-0.6-9.9-1.9C847.5,203.2,845.9,201.1,844.9,198.2"/>
	<path class="st0" d="M883.1,120.8c1.9,0,3.5,0.7,4.8,2c1.3,1.3,2,2.9,2,4.7c0,1.9-0.7,3.5-2,4.8c-1.3,1.3-2.9,2-4.8,2
		c-1.8,0-3.4-0.7-4.7-2c-1.3-1.3-2-2.9-2-4.8c0-1.9,0.6-3.5,1.9-4.7C879.6,121.4,881.2,120.8,883.1,120.8 M877.1,205.2v-52.1h-8.4
		v-9.2H888v61.3H877.1z"/>
	<path class="st0" d="M938.6,154.4c-2.4-1.6-4.8-2.5-7.2-2.5c-3.9,0-7.2,1.8-10.1,5.3c-2.9,3.5-4.3,7.8-4.3,12.8v35.1h-10.9v-61.3
		H917v9.8c4-7.3,9.9-10.9,17.7-10.9c1.9,0,4.8,0.3,8.4,1L938.6,154.4z"/>
	<path class="st0" d="M976.1,151.9c-4.8,0-8.9,1.6-12.2,4.7c-3.1,3-4.9,6.7-5.3,11.1h33.9c0-4.4-1.4-8-4.1-11
		C985.4,153.5,981.3,151.9,976.1,151.9 M1002.4,175.6h-44.2c0,7.2,2,12.7,5.9,16.5c3.5,3.4,7.9,5,13.4,5c6.2,0,11.4-1.8,15.6-5.4
		l4.6,7.8c-1.7,1.7-4.3,3.1-7.7,4.3c-4.3,1.6-9.2,2.4-14.5,2.4c-7.7,0-14.2-2.6-19.6-7.8c-6-5.8-9-13.5-9-23.2
		c0-10.1,3.1-18.2,9.2-24.3c5.5-5.5,12-8.2,19.5-8.2c8.7,0,15.6,2.5,20.5,7.4c4.8,4.7,7.2,11,7.2,18.8
		C1003.3,171.4,1003,173.6,1002.4,175.6"/>
	<path class="st0" d="M1027.3,189.1c2.4,0,4.4,0.8,6.1,2.5c1.7,1.7,2.5,3.7,2.5,6.1c0,2.4-0.8,4.4-2.5,6.1c-1.7,1.7-3.7,2.5-6.1,2.5
		c-2.4,0-4.4-0.8-6.1-2.5c-1.7-1.7-2.5-3.7-2.5-6.1c0-2.4,0.8-4.4,2.5-6.1C1022.9,190,1024.9,189.1,1027.3,189.1"/>
	<path class="st0" d="M1090.9,128.5c-2.2-0.8-4.3-1.1-6.2-1.1c-3.3,0-6.1,1.3-8.2,3.8c-2.2,2.5-3.2,5.7-3.2,9.6c0,1,0.1,2.1,0.3,3.2
		h12.5v9.2h-12.5v52.1h-10.9v-52.1h-8.9v-9.2h8.9c0-7.8,1.9-14,5.8-18.4c3.9-4.5,8.9-6.7,15.3-6.7c3.2,0,6.6,0.6,10.2,1.7
		L1090.9,128.5z"/>
	<path class="st0" d="M1134.4,154.4c-2.4-1.6-4.8-2.5-7.2-2.5c-3.9,0-7.2,1.8-10.1,5.3c-2.9,3.5-4.3,7.8-4.3,12.8v35.1H1102v-61.3
		h10.9v9.8c4-7.3,9.9-10.9,17.7-10.9c1.9,0,4.8,0.3,8.4,1L1134.4,154.4z"/>
</g>
</svg>
