<?xml version="1.0" encoding="UTF-8"?>
<svg enable-background="new 0 0 1087 197.6" version="1" viewBox="0 0 1087 197.6" xmlns="http://www.w3.org/2000/svg">
<g fill="#1AB4DD">
<path d="M7.2 26.8C7.2 16 16 7.2 26.8 7.2h72c50.5 0 91.6 41.1 91.6 91.6 0 50.5-41.1 91.6-91.6 91.6-50.5 0-91.6-41.1-91.6-91.6v-72zm91.6 170.8c54.5 0 98.8-44.3 98.8-98.8S153.3 0 98.8 0h-72C12 0 0 12 0 26.8v72c0 54.5 44.3 98.8 98.8 98.8M136.3 114.5l-4.5 26.5c-.8 4.9 2.4 9.5 7.3 10.3l2.9.5c4.9.8 9.5-2.4 10.3-7.3l4.5-26.5c.8-4.9-2.5-9.5-7.3-10.3l-2.9-.5c-4.8-.8-9.5 2.5-10.3 7.3M172.8 69.5l-14 81.6c12.2-14 19.6-32.2 19.6-52.3 0-10.4-2-20.2-5.6-29.3M145.8 59c-.4 2.4 1.2 4.8 3.7 5.2l11.8 2c2.4.4 4.7-1.2 5.2-3.7.4-2.4-1.2-4.8-3.7-5.2l-11.8-2c-2.4-.4-4.8 1.3-5.2 3.7"/>
<path d="M37.1 72.4c0-4.9 4-9 9-9H64c4.9 0 9 4 9 9v101.7c1.5.5 3 1 4.5 1.4v-127c0-5 4-9 9-9h17.9c5 0 9 4 9 9v128.6c1.7-.3 3.3-.7 5-1.1l20.7-122c.8-4.9 5.5-8.2 10.4-7.3l11.1 1.9C146 30.7 123.8 19.3 98.9 19.3h-72c-4.2 0-7.6 3.4-7.6 7.6v72c0 19 6.7 36.5 17.9 50.2V72.4zM61 80.7c2.5 0 4.5-2 4.5-4.5s-2-4.5-4.5-4.5H49c-2.5 0-4.5 2-4.5 4.5s2 4.5 4.5 4.5h12zM65.4 141.9c0-4.9-4-9-9-9h-3c-4.9 0-9 4-9 9V157c6.1 5.7 13 10.4 20.6 13.9.2-.7.3-1.4.3-2.2v-26.8zM84.9 135.5c0 4.9 4 9 9 9h3c5 0 9-4 9-9v-26.9c0-5-4-9-9-9h-3c-4.9 0-9 4-9 9v26.9zM101.3 56.8c2.5 0 4.5-2 4.5-4.5s-2-4.5-4.5-4.5h-12c-2.5 0-4.5 2-4.5 4.5s2 4.5 4.5 4.5h12z"/>
</g>
<g fill="#6E6E75">
<path d="m223 124.1v-69.1h10.9v67.2c0 3.3 0.9 5.9 2.8 7.8s4.4 2.8 7.4 2.8v9.7c-14 0.1-21.1-6.1-21.1-18.4m59-35.9c-4.8 0-8.9 1.6-12.2 4.7-3.1 3-4.9 6.7-5.3 11.1h33.9c0-4.4-1.4-8-4.1-11-3.1-3.2-7.2-4.8-12.3-4.8m26.3 23.7h-44.2c0 7.2 2 12.7 5.9 16.5 3.5 3.4 7.9 5 13.4 5 6.2 0 11.4-1.8 15.6-5.4l4.6 7.8c-1.7 1.7-4.3 3.1-7.7 4.3-4.3 1.6-9.2 2.4-14.5 2.4-7.7 0-14.2-2.6-19.6-7.8-6-5.8-9-13.5-9-23.2 0-10.1 3.1-18.2 9.2-24.3 5.5-5.5 12-8.2 19.5-8.2 8.7 0 15.6 2.5 20.5 7.4 4.8 4.7 7.2 11 7.2 18.8 0 2.4-0.3 4.6-0.9 6.7m13.2 12.2v-69.1h10.9v67.2c0 3.3 0.9 5.9 2.8 7.8s4.4 2.8 7.4 2.8v9.7c-14.1 0.1-21.1-6.1-21.1-18.4"/>
<path d="m366.4 57c1.9 0 3.5 0.7 4.8 2s2 2.9 2 4.7c0 1.9-0.7 3.5-2 4.8s-2.9 2-4.8 2c-1.8 0-3.4-0.7-4.7-2s-2-2.9-2-4.8 0.6-3.5 1.9-4.7c1.4-1.4 2.9-2 4.8-2m-5.9 84.4v-52.1h-8.4v-9.2h19.3v61.3h-10.9zm50.2 1.2h-2.9l-26.2-62.6h11.9l16.2 42.9 16.5-42.9h11.4zm68.6-52c-2.4-1.6-4.7-2.5-7.2-2.5-3.9 0-7.2 1.8-10.1 5.3s-4.3 7.8-4.3 12.8v35.1h-10.9v-61.1h10.9v9.8c4-7.3 9.9-10.9 17.7-10.9 1.9 0 4.7 0.3 8.4 1l-4.5 10.5zm37.5-2.4c-4.8 0-8.9 1.6-12.2 4.7-3.1 3-4.9 6.7-5.3 11.1h33.9c0-4.4-1.4-8-4.1-11-3-3.2-7.1-4.8-12.3-4.8m26.4 23.7h-44.2c0 7.2 2 12.7 5.9 16.5 3.5 3.4 7.9 5 13.4 5 6.2 0 11.4-1.8 15.6-5.4l4.6 7.8c-1.7 1.7-4.3 3.1-7.7 4.3-4.3 1.6-9.2 2.4-14.5 2.4-7.7 0-14.2-2.6-19.6-7.8-6-5.8-9-13.5-9-23.2 0-10.1 3.1-18.2 9.2-24.3 5.5-5.5 12-8.2 19.5-8.2 8.7 0 15.6 2.5 20.5 7.4 4.8 4.7 7.2 11 7.2 18.8-0.1 2.4-0.4 4.6-0.9 6.7m8.3 25.9l3.8-10.3c6.1 4 10.9 6 14.6 6 6.7 0 10.1-2.8 10.1-8.5 0-4-3.2-7.5-9.7-10.4-5-2.3-8.4-4-10.1-5.2s-3.2-2.5-4.5-4-2.2-3.1-2.9-4.8c-0.6-1.7-0.9-3.5-0.9-5.5 0-5 1.8-9 5.5-11.8s8.4-4.2 14.4-4.2c4.5 0 10.1 1.4 16.9 4.2l-3.1 10.1c-4.3-3.4-8.6-5.2-13-5.2-2.6 0-4.8 0.6-6.6 1.8s-2.7 2.8-2.7 4.6c0 3.9 2.2 6.9 6.7 8.9l7.8 3.5c4.8 2.2 8.2 4.7 10.4 7.4 2.2 2.8 3.3 6.3 3.3 10.5 0 5.5-1.9 9.8-5.8 12.9s-9.2 4.7-16 4.7c-6.5 0.1-12.6-1.5-18.2-4.7m97.6-52.7l-5.4 7.7c-1.1-1.1-3.1-2.2-5.9-3.1-2.8-1-5.6-1.5-8.3-1.5-5.9 0-10.6 2.1-14.1 6.2s-5.2 9.8-5.2 17 1.8 12.6 5.3 16.4 8.5 5.6 14.8 5.6c4.9 0 9.8-1.9 14.8-5.7l4.3 9.2c-5.8 3.8-13.1 5.7-21.7 5.7-8.4 0-15.3-2.8-20.7-8.4-5.5-5.6-8.2-13.2-8.2-22.8 0-9.8 2.8-17.6 8.5-23.5s13.5-8.9 23.3-8.9c3.2 0 6.6 0.7 10.3 2 3.7 1.4 6.5 2.7 8.2 4.1m19.2 25.6c0 15.4 5.4 23.1 16.3 23.1 5.1 0 9-2.1 11.9-6.2s4.3-9.7 4.3-16.9c0-15.2-5.4-22.8-16.3-22.8-5 0-8.9 2-11.9 6.1-2.8 4-4.3 9.6-4.3 16.7m-11.4 0c0-9.5 2.5-17.1 7.6-22.9s11.8-8.7 20.1-8.7c8.8 0 15.6 2.8 20.4 8.4s7.3 13.3 7.3 23.3c0 9.9-2.5 17.7-7.4 23.4-5 5.7-11.7 8.6-20.3 8.6-8.7 0-15.5-2.9-20.4-8.6-4.9-6-7.3-13.8-7.3-23.5m67.8 13.4v-69.1h10.9v67.2c0 3.3 0.9 5.9 2.8 7.8s4.4 2.8 7.4 2.8v9.7c-14.1 0.1-21.1-6.1-21.1-18.4m67.2-12.8c-3.4-0.8-5.8-1.1-7.2-1.1-5.5 0-10 1.4-13.4 4.2-3.5 2.8-5.2 6.2-5.2 10 0 6.4 3.8 9.6 11.3 9.6 5.5 0 10.4-2.6 14.6-7.8v-14.9zm1.1 23.1c-4.4 5.5-11 8.2-20 8.2-4.8 0-9-1.7-12.5-5.2s-5.3-7.8-5.3-13c0-6.2 2.7-11.5 8.2-15.8 5.4-4.3 12.4-6.4 20.8-6.4 2.3 0 4.9 0.5 7.8 1.5 0-9.9-4.4-14.9-13.3-14.9-6.8 0-12 1.8-15.7 5.5l-4.6-9.1c2.1-1.7 4.9-3.1 8.6-4.3 3.6-1.2 7.1-1.8 10.4-1.8 8.9 0 15.3 2 19.4 6.1 4 4 6 10.5 6 19.3v22c0 5.4 1.6 9 4.8 10.8v5.4c-4.4 0-7.7-0.6-9.9-1.9-2.2-1.4-3.8-3.5-4.7-6.4"/>
<path d="m831.1 57c1.9 0 3.5 0.7 4.8 2s2 2.9 2 4.7c0 1.9-0.7 3.5-2 4.8s-2.9 2-4.8 2c-1.8 0-3.4-0.7-4.7-2s-2-2.9-2-4.8 0.6-3.5 1.9-4.7c1.4-1.4 3-2 4.8-2m-5.9 84.4v-52.1h-8.4v-9.2h19.3v61.3h-10.9zm61.4-50.8c-2.4-1.6-4.8-2.5-7.2-2.5-3.9 0-7.2 1.8-10.1 5.3s-4.3 7.8-4.3 12.8v35.1h-10.9v-61.1h10.9v9.8c4-7.3 9.9-10.9 17.7-10.9 1.9 0 4.8 0.3 8.4 1l-4.5 10.5zm37.5-2.4c-4.8 0-8.9 1.6-12.2 4.7-3.1 3-4.9 6.7-5.3 11.1h33.9c0-4.4-1.4-8-4.1-11-3-3.2-7.1-4.8-12.3-4.8m26.4 23.7h-44.2c0 7.2 2 12.7 5.9 16.5 3.5 3.4 7.9 5 13.4 5 6.2 0 11.4-1.8 15.6-5.4l4.6 7.8c-1.7 1.7-4.3 3.1-7.7 4.3-4.3 1.6-9.2 2.4-14.5 2.4-7.7 0-14.2-2.6-19.6-7.8-6-5.8-9-13.5-9-23.2 0-10.1 3.1-18.2 9.2-24.3 5.5-5.5 12-8.2 19.5-8.2 8.7 0 15.6 2.5 20.5 7.4 4.8 4.7 7.2 11 7.2 18.8-0.1 2.4-0.3 4.6-0.9 6.7m24.8 13.5c2.4 0 4.4 0.8 6.1 2.5s2.5 3.7 2.5 6.1-0.8 4.4-2.5 6.1-3.7 2.5-6.1 2.5-4.4-0.8-6.1-2.5-2.5-3.7-2.5-6.1 0.8-4.4 2.5-6.1 3.8-2.5 6.1-2.5"/>
<path d="M1038.9 64.8c-2.2-.8-4.3-1.1-6.2-1.1-3.3 0-6.1 1.3-8.2 3.8-2.2 2.5-3.2 5.7-3.2 9.6 0 1 .1 2.1.3 3.2h12.5v9.2h-12.5v52.1h-10.9V89.3h-8.9v-9.2h8.9c0-7.8 1.9-14 5.8-18.4 3.9-4.5 8.9-6.7 15.3-6.7 3.2 0 6.6.6 10.2 1.7l-3.1 8.1zM1082.4 90.6c-2.4-1.6-4.8-2.5-7.2-2.5-3.9 0-7.2 1.8-10.1 5.3-2.9 3.5-4.3 7.8-4.3 12.8v35.1H1050V80.2h10.9V90c4-7.3 9.9-10.9 17.7-10.9 1.9 0 4.8.3 8.4 1l-4.6 10.5z"/>
</g>
</svg>
